<svg width="91" height="109" viewBox="0 0 91 109" fill="none" xmlns="http://www.w3.org/2000/svg">
<path d="M68.1968 81.9895L44.9959 13.384L19.2042 82.8447" stroke="black"/>
<circle cx="45.5" cy="3.5" r="3" fill="white" stroke="black"/>
<path d="M1.248 102.18H0.432C0.408 102.708 0.476 103.16 0.636 103.536C0.804 103.912 1.04 104.22 1.344 104.46C1.648 104.7 2.016 104.88 2.448 105C2.88 105.112 3.348 105.168 3.852 105.168C4.356 105.168 4.788 105.12 5.148 105.024C5.508 104.936 5.808 104.82 6.048 104.676C6.296 104.524 6.488 104.356 6.624 104.172C6.768 103.988 6.876 103.808 6.948 103.632C7.028 103.448 7.076 103.276 7.092 103.116C7.116 102.956 7.128 102.828 7.128 102.732C7.128 102.38 7.068 102.08 6.948 101.832C6.836 101.584 6.676 101.376 6.468 101.208C6.268 101.032 6.032 100.888 5.76 100.776C5.496 100.656 5.212 100.556 4.908 100.476L2.82 99.96C2.644 99.92 2.476 99.868 2.316 99.804C2.164 99.74 2.028 99.656 1.908 99.552C1.788 99.448 1.692 99.324 1.62 99.18C1.556 99.028 1.524 98.852 1.524 98.652C1.524 98.332 1.584 98.064 1.704 97.848C1.824 97.632 1.98 97.46 2.172 97.332C2.372 97.196 2.6 97.1 2.856 97.044C3.12 96.98 3.392 96.948 3.672 96.948C3.976 96.948 4.264 96.992 4.536 97.08C4.816 97.16 5.06 97.284 5.268 97.452C5.484 97.612 5.656 97.816 5.784 98.064C5.92 98.304 5.996 98.588 6.012 98.916H6.828C6.828 98.476 6.74 98.092 6.564 97.764C6.396 97.428 6.168 97.148 5.88 96.924C5.592 96.7 5.256 96.532 4.872 96.42C4.488 96.308 4.084 96.252 3.66 96.252C3.06 96.252 2.568 96.34 2.184 96.516C1.8 96.684 1.496 96.892 1.272 97.14C1.056 97.388 0.908 97.652 0.828 97.932C0.748 98.212 0.708 98.456 0.708 98.664C0.708 99 0.76 99.284 0.864 99.516C0.976 99.748 1.12 99.944 1.296 100.104C1.472 100.264 1.676 100.392 1.908 100.488C2.148 100.584 2.392 100.664 2.64 100.728L4.548 101.196C4.748 101.244 4.952 101.308 5.16 101.388C5.368 101.46 5.556 101.556 5.724 101.676C5.9 101.796 6.04 101.944 6.144 102.12C6.256 102.296 6.312 102.504 6.312 102.744C6.312 103.056 6.236 103.324 6.084 103.548C5.932 103.764 5.74 103.944 5.508 104.088C5.284 104.224 5.04 104.324 4.776 104.388C4.512 104.452 4.268 104.484 4.044 104.484C3.652 104.484 3.284 104.448 2.94 104.376C2.596 104.296 2.296 104.168 2.04 103.992C1.792 103.816 1.596 103.58 1.452 103.284C1.308 102.988 1.24 102.62 1.248 102.18ZM12.9826 96.432V105H13.7986V100.848H18.8866V105H19.7026V96.432H18.8866V100.152H13.7986V96.432H12.9826ZM26.3518 100.716C26.3518 100.244 26.4118 99.784 26.5318 99.336C26.6598 98.888 26.8518 98.488 27.1078 98.136C27.3718 97.776 27.7078 97.488 28.1158 97.272C28.5238 97.056 29.0118 96.948 29.5798 96.948C30.1478 96.948 30.6318 97.056 31.0318 97.272C31.4398 97.488 31.7718 97.776 32.0278 98.136C32.2918 98.488 32.4838 98.888 32.6038 99.336C32.7318 99.784 32.7958 100.244 32.7958 100.716C32.7958 101.18 32.7318 101.64 32.6038 102.096C32.4838 102.544 32.2918 102.948 32.0278 103.308C31.7718 103.66 31.4398 103.944 31.0318 104.16C30.6318 104.376 30.1478 104.484 29.5798 104.484C29.0118 104.484 28.5238 104.376 28.1158 104.16C27.7078 103.944 27.3718 103.66 27.1078 103.308C26.8518 102.948 26.6598 102.544 26.5318 102.096C26.4118 101.64 26.3518 101.18 26.3518 100.716ZM25.5358 100.716C25.5358 101.308 25.6198 101.872 25.7878 102.408C25.9558 102.944 26.2078 103.416 26.5438 103.824C26.8798 104.232 27.2998 104.56 27.8038 104.808C28.3158 105.048 28.9078 105.168 29.5798 105.168C30.2518 105.168 30.8398 105.048 31.3438 104.808C31.8478 104.56 32.2678 104.232 32.6038 103.824C32.9398 103.416 33.1918 102.944 33.3598 102.408C33.5278 101.872 33.6118 101.308 33.6118 100.716C33.6118 100.124 33.5278 99.56 33.3598 99.024C33.1918 98.488 32.9398 98.016 32.6038 97.608C32.2678 97.192 31.8478 96.864 31.3438 96.624C30.8398 96.376 30.2518 96.252 29.5798 96.252C28.9078 96.252 28.3158 96.376 27.8038 96.624C27.2998 96.864 26.8798 97.192 26.5438 97.608C26.2078 98.016 25.9558 98.488 25.7878 99.024C25.6198 99.56 25.5358 100.124 25.5358 100.716ZM38.5823 96.432L40.9583 105H41.8463L44.0063 97.332H44.0303L46.2023 105H47.0663L49.4303 96.432H48.6143L46.6583 103.932H46.6343L44.5343 96.432H43.5143L41.4263 103.932H41.4023L39.4583 96.432H38.5823ZM63.9689 96.432L66.8129 103.944L69.7649 96.432H70.9649V105H70.1489V97.596H70.1249L67.1969 105H66.4289L63.6089 97.596H63.5849V105H62.7689V96.432H63.9689ZM77.2084 96.432V105H83.1844V104.304H78.0244V100.92H82.8004V100.224H78.0244V97.128H83.1244V96.432H77.2084Z" fill="black"/>
</svg>
